<svg height="512pt" viewBox="0 0 512 512.05299" width="512pt" xmlns="http://www.w3.org/2000/svg"><path d="m511.476562 311.984375c.015626-16.085937-9.621093-30.617187-24.449218-36.859375-14.824219-6.246094-31.953125-2.992188-43.453125 8.261719-.078125 0-.167969-.066407-.257813-.089844l-80.046875 80c-2.992187 2.996094-7.050781 4.679687-11.289062 4.6875h-112c-8.835938 0-16-7.164063-16-16s7.164062-16 16-16h80c17.171875-1.160156 30.839843-14.828125 32-32-.230469-17.574219-14.421875-31.765625-32-32h-160c-25.109375.960937-48.132813 14.234375-61.550781 35.480469l-92.632813 152.800781c-7.003906 10.664063-7.679687 24.285156-1.765625 35.59375 6.878906 10.742187 19.039062 16.917969 31.773438 16.125h124.175781c5.351562 0 10.347656-2.675781 13.3125-7.125l27.25-40.875h167.4375c48 0 143.496093-134.765625 143.496093-152zm0 0" fill="#1a87ff"/><path d="m255.980469 111.984375 110.195312-55.09375c-1.503906-3.101563-3.972656-5.628906-7.042969-7.199219l-96-48c-4.503906-2.253906-9.804687-2.253906-14.3125 0l-96 48c-3.0625 1.570313-5.53125 4.097656-7.03125 7.199219zm0 0" fill="#3b4ee4"/><path d="m255.980469 111.984375v128c2.484375 0 4.933593-.578125 7.152343-1.6875l96-48c5.421876-2.707031 8.847657-8.25 8.847657-14.3125v-112c-.019531-2.476563-.625-4.914063-1.757813-7.117187zm0 0" fill="#1a87ff"/><path d="m143.980469 63.984375v112c0 6.0625 3.421875 11.601563 8.839843 14.3125l96 48c2.226563 1.113281 4.675782 1.691406 7.160157 1.6875v-128l-110.238281-55.117187c-1.132813 2.203124-1.738282 4.640624-1.761719 7.117187zm0 0" fill="#08459e"/></svg>